<svg width="60" height="48" viewBox="0 0 60 48" fill="none" xmlns="http://www.w3.org/2000/svg">
<path d="M25.0022 0.984465L11.0021 0.988375C9.89236 0.988375 9.50946 2.00118 9.00006 2.98639V3.00006H8.00005C5.78404 3.00006 4.00003 4.78407 4.00003 7.00008V12.0001C1.78401 12.0001 0 13.7841 0 16.0001V44.0003C0 46.2163 1.78401 48.0004 4.00003 48.0004H56.0004C58.2164 48.0004 60.0004 46.2163 60.0004 44.0003V12.0001C60.0004 9.7841 58.2164 8.00009 56.0004 8.00009V7.00008C56.0004 4.78407 54.2164 3.00006 52.0003 3.00006H35.1412C35.0939 2.99686 35.0487 2.98619 35.0006 2.98639H27.0045C26.4186 2.04525 26.1135 0.984465 25.0022 0.984465Z" fill="#1A73E8"/>
<path opacity="0.2" d="M25.0019 0.984497L11.0019 0.98839C9.89221 0.98839 9.50926 2.00125 8.99996 2.98644V3.00012H7.99995C5.78393 3.00012 4 4.78409 4 7.00007V12.0001H29.0002L32.0001 8.00015H56.0002V7.00015C56.0002 4.78413 54.2163 3.0002 52.0003 3.0002L27.0043 2.98651C26.4184 2.04539 26.1132 0.984497 25.0019 0.984497Z" fill="#155CBA"/>
<path d="M9.0161 5.98413C7.89949 5.98413 7.00049 6.88317 7.00049 7.99974V11.9998H29.0006L32.0007 7.99974H53.0008C53.0008 6.88314 52.1018 5.98413 50.9852 5.98413H9.0161Z" fill="white"/>
<path opacity="0.25" d="M23 1.97815H12.9992C12.4471 1.97815 11.9995 2.42573 11.9995 2.97785C11.9995 3.52997 12.4471 3.97756 12.9992 3.97756H23C23.5522 3.97756 23.9997 3.52997 23.9997 2.97785C23.9997 2.42573 23.5522 1.97815 23 1.97815Z" fill="black"/>
<path d="M44.9422 36.9484H27.4172V33.2735H37.5422V33.1735L32.5422 28.6234V24.5984L41.8172 33.2735H44.9422V36.9484ZM44.9422 28.1984L39.3172 31.7984L37.0422 29.6984L44.9422 24.2234V28.1984Z" fill="#282828"/>
<path d="M20.9 37C19.6 37 18.425 36.75 17.375 36.25C16.3417 35.7334 15.5167 34.9917 14.9 34.025C14.3 33.0417 14 31.8666 14 30.5C14 29.1333 14.3333 27.9667 15 27C15.6667 26.0167 16.5417 25.275 17.625 24.775C18.725 24.2583 19.9083 24 21.175 24C22.1584 24 23.05 24.1583 23.85 24.475C24.65 24.775 25.3084 25.175 25.825 25.675L24.125 27.95C23.6417 27.6167 23.175 27.375 22.725 27.225C22.2917 27.0583 21.8417 26.975 21.375 26.975C20.675 26.975 20.05 27.1167 19.5 27.4C18.95 27.6833 18.525 28.0917 18.225 28.625C17.925 29.1583 17.775 29.7833 17.775 30.5C17.775 31.2167 17.9167 31.8417 18.2 32.375C18.5 32.9083 18.9083 33.3167 19.425 33.6C19.9583 33.8833 20.5667 34.025 21.25 34.025C21.9 34.025 22.4917 33.9083 23.025 33.675C23.575 33.4416 24.075 33.1666 24.525 32.85L26 35.175C25.2667 35.7917 24.4417 36.25 23.525 36.55C22.625 36.85 21.75 37 20.9 37Z" fill="#282828"/>
<path d="M60.0003 32.0002L44.0002 48.0003H56.0003C58.2163 48.0003 60.0003 46.2163 60.0003 44.0003V32.0002Z" fill="#196EDE"/>
</svg>
