<svg width="1647" height="512" viewBox="0 0 1647 512" fill="none" xmlns="http://www.w3.org/2000/svg">
<path fill-rule="evenodd" clip-rule="evenodd" d="M130.162 14.6959C110.887 -8.9594 73.269 -3.08184 62.1288 25.3258L2.77424 176.68C-6.39132 200.052 8.0629 225.977 32.763 230.468L93.8326 241.572L3.94522 456.757C-7.02784 483.026 12.2696 512 40.7382 512H1459.58V511.07H1462.4C1466.07 511.07 1469.05 508.094 1469.05 504.424V433.631C1469.05 427.034 1478.73 423.685 1483.79 427.922C1488.16 431.585 1493.03 434.88 1498.39 437.808C1511.15 444.613 1525.76 448.016 1542.2 448.016C1561.77 448.016 1579.49 443.053 1595.37 433.129C1611.25 422.922 1623.72 408.602 1632.8 390.172C1642.15 371.457 1646.83 349.908 1646.83 325.523C1646.83 301.137 1642.15 279.73 1632.8 261.299C1623.72 242.868 1611.25 228.691 1595.37 218.767C1579.49 208.842 1561.77 203.88 1542.2 203.88C1525.47 203.88 1510.87 207.283 1498.39 214.088C1493.1 216.978 1488.29 220.25 1483.96 223.907C1478.89 228.191 1469.05 224.839 1469.05 218.202V213.929C1469.05 210.258 1466.07 207.283 1462.4 207.283H1402.96C1399.29 207.283 1396.32 210.258 1396.32 213.929V445.543H1260.83C1273.51 443.147 1285.4 439.009 1296.49 433.129C1315.48 423.205 1330.37 409.028 1341.15 390.597C1352.2 371.883 1357.73 350.333 1357.73 325.948C1357.73 301.563 1352.35 280.155 1341.57 261.724C1330.8 243.01 1316.05 228.691 1297.34 218.767C1278.62 208.842 1257.64 203.88 1234.39 203.88C1211.14 203.88 1190.16 208.842 1171.44 218.767C1152.73 228.691 1137.98 243.01 1127.21 261.724C1116.43 280.155 1111.05 301.563 1111.05 325.948C1111.05 350.617 1116.29 372.166 1126.78 390.597C1137.56 409.028 1152.16 423.205 1170.59 433.129C1181.68 439.009 1193.56 443.147 1206.24 445.543H674.197C700.586 442.507 723.774 433.69 743.76 419.094C766.801 402.007 782.869 379.247 791.964 350.814C793.292 346.664 790.11 342.536 785.753 342.536H718.605C716.043 342.536 713.733 344.021 712.506 346.269C706.692 356.923 698.821 365.177 688.893 371.032C678.119 377.554 665.784 380.815 651.89 380.815C629.49 380.815 611.343 373.017 597.449 357.422C583.555 341.827 576.608 320.986 576.608 294.899C576.608 268.813 583.555 247.972 597.449 232.377C611.343 216.782 629.49 208.984 651.89 208.984C665.784 208.984 678.119 212.245 688.893 218.767C698.821 224.621 706.692 232.876 712.506 243.53C713.733 245.778 716.043 247.263 718.605 247.263H785.753C790.11 247.263 793.292 243.135 791.964 238.985C782.869 210.552 766.801 187.792 743.76 170.705C718.524 151.991 688.184 142.634 652.741 142.634C623.819 142.634 597.874 149.156 574.907 162.199C552.223 174.958 534.501 192.964 521.742 216.215C508.982 239.182 502.602 265.41 502.602 294.899C502.602 324.388 508.982 350.617 521.742 373.584C534.501 396.551 552.223 414.557 574.907 427.6C592.132 437.17 611.033 443.151 631.608 445.543H80.651L144.792 291.993C151.266 302.606 158.347 313.677 165.707 324.302C179.808 344.656 197.63 367.428 216.192 380.283C225.154 386.49 240.393 394.708 258.625 391.69C279.416 388.248 291.231 372.791 297.175 359.057C322.976 299.449 337.22 266.8 351.482 234.11L351.493 234.086C363.997 205.424 376.518 176.727 396.855 129.795C402.888 115.871 407.101 98.8362 401.942 81.7517C396.222 62.81 381.75 52.303 368.305 47.2625C355.724 42.546 341.91 41.5901 329.793 41.8697C317.21 42.16 303.788 43.8741 290.645 46.2508C251.088 53.404 206.941 67.9375 181.056 77.1565L130.162 14.6959ZM170.074 201.288L170.071 201.283L162.621 186.533L76.4394 170.863L107.386 91.9503L141.488 133.803C151.92 146.606 169.798 152.311 186.534 145.943C202.544 139.852 257.236 119.827 302.471 111.647C313.598 109.635 323.362 108.492 331.326 108.309C332.177 108.289 332.984 108.281 333.748 108.283C314.99 151.557 302.844 179.401 290.682 207.279L290.664 207.321C277.645 237.163 264.605 267.053 243.418 315.961C236.833 308.886 228.96 298.907 220.336 286.458C207.154 267.428 194.581 246.165 185.185 229.394C180.519 221.068 176.707 213.973 174.072 208.983C172.756 206.49 171.738 204.528 171.057 203.208C170.717 202.548 170.461 202.049 170.295 201.724L170.115 201.37L170.074 201.288ZM255.943 326.797C255.946 326.808 255.816 326.757 255.545 326.609C255.805 326.711 255.94 326.785 255.943 326.797ZM1268.84 369.756C1259.2 379.964 1247.43 385.068 1233.54 385.068C1219.64 385.068 1208.02 379.964 1198.66 369.756C1189.59 359.548 1185.05 344.946 1185.05 325.948C1185.05 306.667 1189.73 292.064 1199.09 282.14C1208.44 271.932 1220.21 266.828 1234.39 266.828C1248.28 266.828 1259.91 271.932 1269.27 282.14C1278.91 292.347 1283.73 306.95 1283.73 325.948C1283.73 344.946 1278.76 359.548 1268.84 369.756ZM1572.83 325.523C1572.83 307.376 1567.72 293.198 1557.51 282.99C1547.59 272.499 1535.26 267.253 1520.51 267.253C1506.05 267.253 1493.72 272.499 1483.51 282.99C1473.58 293.482 1468.62 307.801 1468.62 325.948C1468.62 344.095 1473.58 358.414 1483.51 368.906C1493.72 379.397 1506.05 384.642 1520.51 384.642C1534.97 384.642 1547.31 379.397 1557.51 368.906C1567.72 358.131 1572.83 343.67 1572.83 325.523Z" fill="url(#paint0_linear_15_2)"/>
<path d="M1050.3 231.952C1033.85 213.805 1012.02 204.731 984.798 204.731C968.919 204.731 954.6 207.85 941.841 214.088C936.011 216.938 930.743 220.232 926.038 223.97C920.955 228.008 911.643 224.657 911.643 218.166V136.52C911.643 132.85 908.667 129.874 904.997 129.874H845.558C841.888 129.874 838.913 132.85 838.913 136.52V437.967C838.913 441.638 841.888 444.613 845.558 444.613H904.997C908.667 444.613 911.643 441.638 911.643 437.967V315.74C911.643 299.862 915.754 287.527 923.977 278.737C932.2 269.947 943.258 265.552 957.152 265.552C971.046 265.552 982.104 269.947 990.327 278.737C998.55 287.527 1002.66 299.862 1002.66 315.74V437.967C1002.66 441.638 1005.64 444.613 1009.31 444.613H1068.32C1071.99 444.613 1074.97 441.638 1074.97 437.967V305.958C1074.97 274.484 1066.74 249.815 1050.3 231.952Z" fill="url(#paint1_linear_15_2)"/>
<defs>
<linearGradient id="paint0_linear_15_2" x1="-607.363" y1="-107.113" x2="1644.52" y2="475.191" gradientUnits="userSpaceOnUse">
<stop stop-color="#ACFF85"/>
<stop offset="0.231321" stop-color="#FFE483"/>
<stop offset="0.451871" stop-color="#FF85F3"/>
<stop offset="0.670801" stop-color="#71BBFF"/>
<stop offset="0.830509" stop-color="#71F6FF"/>
</linearGradient>
<linearGradient id="paint1_linear_15_2" x1="-607.363" y1="-107.113" x2="1644.52" y2="475.191" gradientUnits="userSpaceOnUse">
<stop stop-color="#ACFF85"/>
<stop offset="0.231321" stop-color="#FFE483"/>
<stop offset="0.451871" stop-color="#FF85F3"/>
<stop offset="0.670801" stop-color="#71BBFF"/>
<stop offset="0.830509" stop-color="#71F6FF"/>
</linearGradient>
</defs>
</svg>
