<svg width="1640" height="350" viewBox="0 0 1640 350" fill="none" xmlns="http://www.w3.org/2000/svg">
<mask id="path-1-outside-1_3_8" maskUnits="userSpaceOnUse" x="13.152" y="96.5439" width="746" height="191" fill="black">
<rect fill="white" x="13.152" y="96.5439" width="746" height="191"/>
<path d="M87.808 283.072C74.496 283.072 62.464 280.512 51.712 275.392C41.1306 270.101 32.6826 262.507 26.368 252.608C20.224 242.539 17.152 230.507 17.152 216.512C17.152 202.517 20.5653 190.571 27.392 180.672C34.2186 170.603 43.1786 163.008 54.272 157.888C65.536 152.597 77.6533 149.952 90.624 149.952C100.693 149.952 109.824 151.573 118.016 154.816C126.208 157.888 132.949 161.984 138.24 167.104L120.832 190.4C115.883 186.987 111.104 184.512 106.496 182.976C102.059 181.269 97.4506 180.416 92.672 180.416C85.504 180.416 79.104 181.867 73.472 184.768C67.84 187.669 63.488 191.851 60.416 197.312C57.344 202.773 55.808 209.173 55.808 216.512C55.808 223.851 57.2586 230.251 60.16 235.712C63.232 241.173 67.4133 245.355 72.704 248.256C78.1653 251.157 84.3946 252.608 91.392 252.608C98.048 252.608 104.107 251.413 109.568 249.024C115.2 246.635 120.32 243.819 124.928 240.576L140.032 264.384C132.523 270.699 124.075 275.392 114.688 278.464C105.472 281.536 96.512 283.072 87.808 283.072Z"/>
<path d="M230.3 283.072C219.207 283.072 208.711 280.512 198.812 275.392C188.913 270.101 180.892 262.507 174.748 252.608C168.604 242.539 165.532 230.507 165.532 216.512C165.532 202.517 168.604 190.571 174.748 180.672C180.892 170.603 188.913 163.008 198.812 157.888C208.711 152.597 219.207 149.952 230.3 149.952C241.393 149.952 251.889 152.597 261.788 157.888C271.687 163.008 279.708 170.603 285.852 180.672C291.996 190.571 295.068 202.517 295.068 216.512C295.068 230.507 291.996 242.539 285.852 252.608C279.708 262.507 271.687 270.101 261.788 275.392C251.889 280.512 241.393 283.072 230.3 283.072ZM230.3 252.608C236.103 252.608 240.881 251.157 244.636 248.256C248.561 245.355 251.463 241.173 253.34 235.712C255.388 230.251 256.412 223.851 256.412 216.512C256.412 209.173 255.388 202.773 253.34 197.312C251.463 191.851 248.561 187.669 244.636 184.768C240.881 181.867 236.103 180.416 230.3 180.416C224.497 180.416 219.633 181.867 215.708 184.768C211.953 187.669 209.052 191.851 207.004 197.312C205.127 202.773 204.188 209.173 204.188 216.512C204.188 223.851 205.127 230.251 207.004 235.712C209.052 241.173 211.953 245.355 215.708 248.256C219.633 251.157 224.497 252.608 230.3 252.608Z"/>
<path d="M372.536 283.072C356.493 283.072 343.523 277.184 333.624 265.408C323.896 253.461 319.032 237.163 319.032 216.512C319.032 202.688 321.592 190.827 326.712 180.928C332.003 171.029 338.829 163.435 347.192 158.144C355.555 152.683 364.259 149.952 373.304 149.952C380.301 149.952 386.36 151.147 391.48 153.536C396.6 155.925 401.208 159.253 405.304 163.52H406.328L404.536 143.808V100.544H442.168V280H411.448L408.632 266.944H407.864C403.256 271.552 397.795 275.392 391.48 278.464C385.336 281.536 379.021 283.072 372.536 283.072ZM382.264 252.352C386.531 252.352 390.456 251.499 394.04 249.792C397.795 247.915 401.293 244.843 404.536 240.576V189.12C401.123 186.048 397.624 183.915 394.04 182.72C390.627 181.355 387.043 180.672 383.288 180.672C378.68 180.672 374.413 181.952 370.488 184.512C366.563 187.072 363.405 190.997 361.016 196.288C358.797 201.408 357.688 207.979 357.688 216C357.688 228.459 359.821 237.675 364.088 243.648C368.355 249.451 374.413 252.352 382.264 252.352Z"/>
<path d="M544.98 283.072C531.839 283.072 519.892 280.512 509.14 275.392C498.559 270.101 490.111 262.507 483.796 252.608C477.652 242.539 474.58 230.507 474.58 216.512C474.58 202.688 477.737 190.827 484.052 180.928C490.367 170.859 498.559 163.179 508.628 157.888C518.697 152.597 529.364 149.952 540.628 149.952C553.769 149.952 564.777 152.683 573.652 158.144C582.527 163.435 589.183 170.688 593.62 179.904C598.228 188.949 600.532 199.275 600.532 210.88C600.532 214.293 600.276 217.621 599.764 220.864C599.423 223.936 599.081 226.24 598.74 227.776H502.484V202.432H573.396L567.508 209.6C567.508 199.36 565.289 191.68 560.852 186.56C556.585 181.269 550.271 178.624 541.908 178.624C535.764 178.624 530.388 179.989 525.78 182.72C521.172 185.451 517.588 189.632 515.028 195.264C512.468 200.896 511.188 207.979 511.188 216.512C511.188 225.216 512.724 232.384 515.796 238.016C518.868 243.477 523.305 247.573 529.108 250.304C534.911 253.035 541.908 254.4 550.1 254.4C555.903 254.4 561.364 253.632 566.484 252.096C571.775 250.56 577.236 248.341 582.868 245.44L595.412 268.224C588.073 272.832 579.967 276.501 571.092 279.232C562.217 281.792 553.513 283.072 544.98 283.072Z"/>
<path d="M643.696 280V153.024H674.416L677.488 180.672H678.256C684.571 170.261 692.165 162.581 701.04 157.632C710.085 152.512 719.643 149.952 729.712 149.952C735.344 149.952 739.867 150.379 743.28 151.232C746.864 152.085 750.533 153.365 754.288 155.072L746.608 186.56C742.683 185.365 739.099 184.512 735.856 184C732.784 183.317 728.859 182.976 724.08 182.976C716.229 182.976 708.464 185.28 700.784 189.888C693.275 194.496 686.789 202.517 681.328 213.952V280H643.696Z"/>
</mask>
<path d="M87.808 283.072C74.496 283.072 62.464 280.512 51.712 275.392C41.1306 270.101 32.6826 262.507 26.368 252.608C20.224 242.539 17.152 230.507 17.152 216.512C17.152 202.517 20.5653 190.571 27.392 180.672C34.2186 170.603 43.1786 163.008 54.272 157.888C65.536 152.597 77.6533 149.952 90.624 149.952C100.693 149.952 109.824 151.573 118.016 154.816C126.208 157.888 132.949 161.984 138.24 167.104L120.832 190.4C115.883 186.987 111.104 184.512 106.496 182.976C102.059 181.269 97.4506 180.416 92.672 180.416C85.504 180.416 79.104 181.867 73.472 184.768C67.84 187.669 63.488 191.851 60.416 197.312C57.344 202.773 55.808 209.173 55.808 216.512C55.808 223.851 57.2586 230.251 60.16 235.712C63.232 241.173 67.4133 245.355 72.704 248.256C78.1653 251.157 84.3946 252.608 91.392 252.608C98.048 252.608 104.107 251.413 109.568 249.024C115.2 246.635 120.32 243.819 124.928 240.576L140.032 264.384C132.523 270.699 124.075 275.392 114.688 278.464C105.472 281.536 96.512 283.072 87.808 283.072Z" fill="white"/>
<path d="M230.3 283.072C219.207 283.072 208.711 280.512 198.812 275.392C188.913 270.101 180.892 262.507 174.748 252.608C168.604 242.539 165.532 230.507 165.532 216.512C165.532 202.517 168.604 190.571 174.748 180.672C180.892 170.603 188.913 163.008 198.812 157.888C208.711 152.597 219.207 149.952 230.3 149.952C241.393 149.952 251.889 152.597 261.788 157.888C271.687 163.008 279.708 170.603 285.852 180.672C291.996 190.571 295.068 202.517 295.068 216.512C295.068 230.507 291.996 242.539 285.852 252.608C279.708 262.507 271.687 270.101 261.788 275.392C251.889 280.512 241.393 283.072 230.3 283.072ZM230.3 252.608C236.103 252.608 240.881 251.157 244.636 248.256C248.561 245.355 251.463 241.173 253.34 235.712C255.388 230.251 256.412 223.851 256.412 216.512C256.412 209.173 255.388 202.773 253.34 197.312C251.463 191.851 248.561 187.669 244.636 184.768C240.881 181.867 236.103 180.416 230.3 180.416C224.497 180.416 219.633 181.867 215.708 184.768C211.953 187.669 209.052 191.851 207.004 197.312C205.127 202.773 204.188 209.173 204.188 216.512C204.188 223.851 205.127 230.251 207.004 235.712C209.052 241.173 211.953 245.355 215.708 248.256C219.633 251.157 224.497 252.608 230.3 252.608Z" fill="white"/>
<path d="M372.536 283.072C356.493 283.072 343.523 277.184 333.624 265.408C323.896 253.461 319.032 237.163 319.032 216.512C319.032 202.688 321.592 190.827 326.712 180.928C332.003 171.029 338.829 163.435 347.192 158.144C355.555 152.683 364.259 149.952 373.304 149.952C380.301 149.952 386.36 151.147 391.48 153.536C396.6 155.925 401.208 159.253 405.304 163.52H406.328L404.536 143.808V100.544H442.168V280H411.448L408.632 266.944H407.864C403.256 271.552 397.795 275.392 391.48 278.464C385.336 281.536 379.021 283.072 372.536 283.072ZM382.264 252.352C386.531 252.352 390.456 251.499 394.04 249.792C397.795 247.915 401.293 244.843 404.536 240.576V189.12C401.123 186.048 397.624 183.915 394.04 182.72C390.627 181.355 387.043 180.672 383.288 180.672C378.68 180.672 374.413 181.952 370.488 184.512C366.563 187.072 363.405 190.997 361.016 196.288C358.797 201.408 357.688 207.979 357.688 216C357.688 228.459 359.821 237.675 364.088 243.648C368.355 249.451 374.413 252.352 382.264 252.352Z" fill="white"/>
<path d="M544.98 283.072C531.839 283.072 519.892 280.512 509.14 275.392C498.559 270.101 490.111 262.507 483.796 252.608C477.652 242.539 474.58 230.507 474.58 216.512C474.58 202.688 477.737 190.827 484.052 180.928C490.367 170.859 498.559 163.179 508.628 157.888C518.697 152.597 529.364 149.952 540.628 149.952C553.769 149.952 564.777 152.683 573.652 158.144C582.527 163.435 589.183 170.688 593.62 179.904C598.228 188.949 600.532 199.275 600.532 210.88C600.532 214.293 600.276 217.621 599.764 220.864C599.423 223.936 599.081 226.24 598.74 227.776H502.484V202.432H573.396L567.508 209.6C567.508 199.36 565.289 191.68 560.852 186.56C556.585 181.269 550.271 178.624 541.908 178.624C535.764 178.624 530.388 179.989 525.78 182.72C521.172 185.451 517.588 189.632 515.028 195.264C512.468 200.896 511.188 207.979 511.188 216.512C511.188 225.216 512.724 232.384 515.796 238.016C518.868 243.477 523.305 247.573 529.108 250.304C534.911 253.035 541.908 254.4 550.1 254.4C555.903 254.4 561.364 253.632 566.484 252.096C571.775 250.56 577.236 248.341 582.868 245.44L595.412 268.224C588.073 272.832 579.967 276.501 571.092 279.232C562.217 281.792 553.513 283.072 544.98 283.072Z" fill="white"/>
<path d="M643.696 280V153.024H674.416L677.488 180.672H678.256C684.571 170.261 692.165 162.581 701.04 157.632C710.085 152.512 719.643 149.952 729.712 149.952C735.344 149.952 739.867 150.379 743.28 151.232C746.864 152.085 750.533 153.365 754.288 155.072L746.608 186.56C742.683 185.365 739.099 184.512 735.856 184C732.784 183.317 728.859 182.976 724.08 182.976C716.229 182.976 708.464 185.28 700.784 189.888C693.275 194.496 686.789 202.517 681.328 213.952V280H643.696Z" fill="white"/>
<path d="M87.808 283.072C74.496 283.072 62.464 280.512 51.712 275.392C41.1306 270.101 32.6826 262.507 26.368 252.608C20.224 242.539 17.152 230.507 17.152 216.512C17.152 202.517 20.5653 190.571 27.392 180.672C34.2186 170.603 43.1786 163.008 54.272 157.888C65.536 152.597 77.6533 149.952 90.624 149.952C100.693 149.952 109.824 151.573 118.016 154.816C126.208 157.888 132.949 161.984 138.24 167.104L120.832 190.4C115.883 186.987 111.104 184.512 106.496 182.976C102.059 181.269 97.4506 180.416 92.672 180.416C85.504 180.416 79.104 181.867 73.472 184.768C67.84 187.669 63.488 191.851 60.416 197.312C57.344 202.773 55.808 209.173 55.808 216.512C55.808 223.851 57.2586 230.251 60.16 235.712C63.232 241.173 67.4133 245.355 72.704 248.256C78.1653 251.157 84.3946 252.608 91.392 252.608C98.048 252.608 104.107 251.413 109.568 249.024C115.2 246.635 120.32 243.819 124.928 240.576L140.032 264.384C132.523 270.699 124.075 275.392 114.688 278.464C105.472 281.536 96.512 283.072 87.808 283.072Z" stroke="#120028" stroke-width="8" mask="url(#path-1-outside-1_3_8)"/>
<path d="M230.3 283.072C219.207 283.072 208.711 280.512 198.812 275.392C188.913 270.101 180.892 262.507 174.748 252.608C168.604 242.539 165.532 230.507 165.532 216.512C165.532 202.517 168.604 190.571 174.748 180.672C180.892 170.603 188.913 163.008 198.812 157.888C208.711 152.597 219.207 149.952 230.3 149.952C241.393 149.952 251.889 152.597 261.788 157.888C271.687 163.008 279.708 170.603 285.852 180.672C291.996 190.571 295.068 202.517 295.068 216.512C295.068 230.507 291.996 242.539 285.852 252.608C279.708 262.507 271.687 270.101 261.788 275.392C251.889 280.512 241.393 283.072 230.3 283.072ZM230.3 252.608C236.103 252.608 240.881 251.157 244.636 248.256C248.561 245.355 251.463 241.173 253.34 235.712C255.388 230.251 256.412 223.851 256.412 216.512C256.412 209.173 255.388 202.773 253.34 197.312C251.463 191.851 248.561 187.669 244.636 184.768C240.881 181.867 236.103 180.416 230.3 180.416C224.497 180.416 219.633 181.867 215.708 184.768C211.953 187.669 209.052 191.851 207.004 197.312C205.127 202.773 204.188 209.173 204.188 216.512C204.188 223.851 205.127 230.251 207.004 235.712C209.052 241.173 211.953 245.355 215.708 248.256C219.633 251.157 224.497 252.608 230.3 252.608Z" stroke="#120028" stroke-width="8" mask="url(#path-1-outside-1_3_8)"/>
<path d="M372.536 283.072C356.493 283.072 343.523 277.184 333.624 265.408C323.896 253.461 319.032 237.163 319.032 216.512C319.032 202.688 321.592 190.827 326.712 180.928C332.003 171.029 338.829 163.435 347.192 158.144C355.555 152.683 364.259 149.952 373.304 149.952C380.301 149.952 386.36 151.147 391.48 153.536C396.6 155.925 401.208 159.253 405.304 163.52H406.328L404.536 143.808V100.544H442.168V280H411.448L408.632 266.944H407.864C403.256 271.552 397.795 275.392 391.48 278.464C385.336 281.536 379.021 283.072 372.536 283.072ZM382.264 252.352C386.531 252.352 390.456 251.499 394.04 249.792C397.795 247.915 401.293 244.843 404.536 240.576V189.12C401.123 186.048 397.624 183.915 394.04 182.72C390.627 181.355 387.043 180.672 383.288 180.672C378.68 180.672 374.413 181.952 370.488 184.512C366.563 187.072 363.405 190.997 361.016 196.288C358.797 201.408 357.688 207.979 357.688 216C357.688 228.459 359.821 237.675 364.088 243.648C368.355 249.451 374.413 252.352 382.264 252.352Z" stroke="#120028" stroke-width="8" mask="url(#path-1-outside-1_3_8)"/>
<path d="M544.98 283.072C531.839 283.072 519.892 280.512 509.14 275.392C498.559 270.101 490.111 262.507 483.796 252.608C477.652 242.539 474.58 230.507 474.58 216.512C474.58 202.688 477.737 190.827 484.052 180.928C490.367 170.859 498.559 163.179 508.628 157.888C518.697 152.597 529.364 149.952 540.628 149.952C553.769 149.952 564.777 152.683 573.652 158.144C582.527 163.435 589.183 170.688 593.62 179.904C598.228 188.949 600.532 199.275 600.532 210.88C600.532 214.293 600.276 217.621 599.764 220.864C599.423 223.936 599.081 226.24 598.74 227.776H502.484V202.432H573.396L567.508 209.6C567.508 199.36 565.289 191.68 560.852 186.56C556.585 181.269 550.271 178.624 541.908 178.624C535.764 178.624 530.388 179.989 525.78 182.72C521.172 185.451 517.588 189.632 515.028 195.264C512.468 200.896 511.188 207.979 511.188 216.512C511.188 225.216 512.724 232.384 515.796 238.016C518.868 243.477 523.305 247.573 529.108 250.304C534.911 253.035 541.908 254.4 550.1 254.4C555.903 254.4 561.364 253.632 566.484 252.096C571.775 250.56 577.236 248.341 582.868 245.44L595.412 268.224C588.073 272.832 579.967 276.501 571.092 279.232C562.217 281.792 553.513 283.072 544.98 283.072Z" stroke="#120028" stroke-width="8" mask="url(#path-1-outside-1_3_8)"/>
<path d="M643.696 280V153.024H674.416L677.488 180.672H678.256C684.571 170.261 692.165 162.581 701.04 157.632C710.085 152.512 719.643 149.952 729.712 149.952C735.344 149.952 739.867 150.379 743.28 151.232C746.864 152.085 750.533 153.365 754.288 155.072L746.608 186.56C742.683 185.365 739.099 184.512 735.856 184C732.784 183.317 728.859 182.976 724.08 182.976C716.229 182.976 708.464 185.28 700.784 189.888C693.275 194.496 686.789 202.517 681.328 213.952V280H643.696Z" stroke="#120028" stroke-width="8" mask="url(#path-1-outside-1_3_8)"/>
<path d="M1025.17 280V282H1027.17H1064.8H1066.8V280V153.024V151.024H1064.8H975.968H973.968V153.024V182.464V184.464H975.968H1025.17V280ZM1025.07 128.404L1025.08 128.417L1025.1 128.43C1030.29 132.88 1036.75 135.056 1044.32 135.056C1052.05 135.056 1058.53 132.888 1063.57 128.407L1063.57 128.404C1068.81 123.73 1071.41 117.626 1071.41 110.272C1071.41 102.777 1068.83 96.59 1063.6 91.9093C1058.57 87.0774 1052.08 84.72 1044.32 84.72C1036.71 84.72 1030.24 87.0899 1025.05 91.8972C1019.82 96.5793 1017.23 102.771 1017.23 110.272C1017.23 117.626 1019.83 123.73 1025.07 128.404ZM1160.32 277.181L1160.33 277.189L1160.35 277.198C1171.4 282.46 1183.73 285.072 1197.31 285.072C1206.25 285.072 1215.42 283.494 1224.82 280.363C1234.44 277.211 1243.11 272.394 1250.82 265.915L1252.16 264.789L1251.22 263.313L1236.12 239.505L1234.99 237.733L1233.28 238.94C1228.79 242.095 1223.8 244.844 1218.29 247.183L1218.28 247.187L1218.27 247.192C1213.09 249.458 1207.3 250.608 1200.89 250.608C1194.18 250.608 1188.29 249.22 1183.15 246.496C1178.22 243.785 1174.31 239.887 1171.41 234.752C1168.7 229.634 1167.31 223.575 1167.31 216.512C1167.31 209.458 1168.78 203.407 1171.66 198.293C1174.54 193.176 1178.6 189.27 1183.89 186.546C1189.2 183.809 1195.28 182.416 1202.17 182.416C1206.71 182.416 1211.07 183.225 1215.28 184.843L1215.32 184.859L1215.36 184.873C1219.76 186.338 1224.37 188.716 1229.2 192.046L1230.78 193.14L1231.93 191.597L1249.34 168.301L1250.4 166.891L1249.13 165.667C1243.61 160.327 1236.63 156.099 1228.23 152.95C1219.78 149.606 1210.4 147.952 1200.12 147.952C1186.87 147.952 1174.47 150.656 1162.93 156.075C1151.51 161.346 1142.27 169.177 1135.24 179.544C1128.15 189.827 1124.65 202.183 1124.65 216.512C1124.65 230.805 1127.79 243.212 1134.16 253.65L1134.17 253.667L1134.18 253.684C1140.69 263.89 1149.42 271.73 1160.32 277.181ZM1499.36 282.72V284.72H1501.36H1624.24H1626.24V282.72V272.992V270.992H1624.24H1501.36H1499.36V272.992V282.72ZM746.544 279.544V281.544H748.544H928H930V279.544V241.912V239.912H928H896.789L879.257 223.514L929.078 191.629L930 191.039V189.944V149.24V145.421L926.861 147.596L852.895 198.857L802.39 151.619L799.024 148.471V153.08V194.296V195.18L799.678 195.775L848.18 239.912H748.544H746.544V241.912V279.544ZM1473 280.544H1475V278.544V240.912V238.912H1473H1441.79L1424.26 222.514L1474.08 190.629L1475 190.039V188.944V148.24V144.421L1471.86 146.596L1397.9 197.857L1347.39 150.619L1344.02 147.471V152.08V193.296V194.18L1344.68 194.775L1393.18 238.912H1293.54H1291.54V240.912V278.544V280.544H1293.54H1473Z" fill="#120028" stroke="white" stroke-width="4"/>
</svg>
