<svg width="221" height="256" viewBox="0 0 221 256" fill="none" xmlns="http://www.w3.org/2000/svg">
<path d="M118.802 20.8399L119.162 0.103843L113.196 0L112.835 20.7361C112.814 21.921 112.516 22.8471 111.94 23.5144C111.364 24.1817 110.54 24.506 109.468 24.4873C108.367 24.4682 107.527 24.1008 106.947 23.3852C106.395 22.67 106.116 21.6774 106.11 20.4074L100.185 20.3043C100.134 23.2384 100.955 25.5385 102.647 27.2048C104.368 28.8716 106.639 29.7295 109.46 29.7786C112.253 29.8272 114.496 29.076 116.188 27.5251C117.88 25.946 118.751 23.7176 118.802 20.8399Z" fill="white"/>
<path fill-rule="evenodd" clip-rule="evenodd" d="M79.9422 31.7867C77.2064 32.1895 74.5995 31.9173 72.1213 30.9702C69.6432 30.023 67.5677 28.5175 65.8948 26.4536C64.2179 24.3618 63.1678 21.8782 62.7444 19.0029C62.3252 16.1555 62.6192 13.5026 63.6262 11.0441C64.6292 8.55778 66.1807 6.50404 68.2807 4.88291C70.3808 3.26179 72.7986 2.24984 75.5344 1.84708C78.298 1.44021 80.905 1.71239 83.3552 2.66362C85.8334 3.61074 87.8969 5.13226 89.546 7.22819C91.2188 9.2921 92.2649 11.7478 92.6841 14.5952C93.1074 17.4705 92.8176 20.1513 91.8146 22.6377C90.8355 25.092 89.2959 27.1297 87.1958 28.7509C85.0958 30.372 82.6779 31.3839 79.9422 31.7867ZM79.1716 26.5525C80.9303 26.2936 82.422 25.6747 83.6469 24.6958C84.8677 23.6889 85.746 22.3903 86.2819 20.7998C86.8178 19.2093 86.9419 17.437 86.6543 15.4829C86.3666 13.5288 85.739 11.8814 84.7716 10.5407C83.8 9.17217 82.5868 8.1957 81.1317 7.61133C79.6767 7.02696 78.0698 6.86424 76.3111 7.12316C74.5525 7.38207 73.0467 8.00304 71.7939 8.98606C70.569 9.96497 69.6886 11.2497 69.1527 12.8402C68.6127 14.4028 68.4866 16.1611 68.7742 18.1152C69.0619 20.0693 69.6915 21.7306 70.6631 23.0992C71.6346 24.4678 72.85 25.4582 74.3091 26.0705C75.7921 26.6507 77.4129 26.8114 79.1716 26.5525Z" fill="white"/>
<path fill-rule="evenodd" clip-rule="evenodd" d="M52.953 37.4752L43.1634 28.5767L40.5099 29.4497L44.108 40.3854L38.4793 42.2374L29.246 14.1745L39.7797 10.7087C41.9507 9.99438 43.928 9.77452 45.7115 10.0491C47.4862 10.297 48.9649 10.9541 50.1475 12.0205C51.3481 13.0513 52.213 14.3708 52.7421 15.979C53.3506 17.8284 53.3657 19.68 52.7874 21.5337C52.2003 23.3606 50.9407 24.9039 49.0084 26.1634L59.4662 35.3322L52.953 37.4752ZM39.121 25.2282L43.8249 23.6805C45.3527 23.1779 46.3728 22.4412 46.8851 21.4706C47.3887 20.4732 47.4244 19.3178 46.9923 18.0045C46.569 16.7179 45.8675 15.8497 44.8877 15.3997C43.8991 14.923 42.6409 14.9359 41.1131 15.4386L36.4092 16.9863L39.121 25.2282Z" fill="white"/>
<path fill-rule="evenodd" clip-rule="evenodd" d="M24.3411 30.9186C24.3945 29.3409 24.0634 27.8476 23.348 26.4387C22.556 24.8788 21.4822 23.6677 20.1266 22.8054C18.7962 21.9303 17.2351 21.5046 15.4433 21.5283C13.6516 21.552 11.7367 22.0812 9.69884 23.116L0 28.0407L13.3753 54.3823L18.6587 51.6996L13.5232 41.5856L17.9386 39.3436C20.1023 38.245 21.697 36.9606 22.7226 35.4904C23.7735 34.0075 24.313 32.4836 24.3411 30.9186ZM18.2942 32.565C17.9218 33.5768 17.0061 34.4532 15.5468 35.1941L11.3579 37.3212L7.46791 29.6602L11.6569 27.5332C14.525 26.0769 16.6106 26.6318 17.9137 29.198C18.5269 30.4057 18.6537 31.528 18.2942 32.565Z" fill="white"/>
<path d="M136.056 14.1216L137.186 6.80139L148.271 8.51223L149.007 3.74365L132.066 1.12897L127.553 30.3679L144.494 32.9826L145.23 28.214L134.145 26.5032L135.34 18.7647L145.17 20.2818L145.886 15.6387L136.056 14.1216Z" fill="white"/>
<path d="M159.438 13.0149C157.503 14.7938 156.091 17.0667 155.202 19.8337C154.313 22.6007 154.137 25.2707 154.673 27.8437C155.237 30.4254 156.394 32.6794 158.147 34.6057C159.934 36.5137 162.171 37.8994 164.857 38.7626C168.027 39.7812 171.036 39.8735 173.882 39.0395C176.764 38.1873 179.137 36.475 181.001 33.9027L174.513 31.8181C173.437 32.9541 172.195 33.6814 170.789 34.0001C169.418 34.3005 167.967 34.2047 166.436 33.7127C164.797 33.1861 163.454 32.3396 162.406 31.173C161.394 29.9883 160.749 28.5809 160.473 26.9509C160.232 25.3027 160.409 23.5518 161.005 21.6982C161.609 19.8177 162.485 18.2913 163.632 17.1188C164.806 15.9549 166.146 15.1997 167.65 14.8533C169.19 14.4885 170.779 14.5695 172.418 15.096C173.949 15.5881 175.184 16.3554 176.123 17.3982C177.09 18.4496 177.679 19.7505 177.892 21.3009L184.38 23.3855C184.355 20.2358 183.419 17.4753 181.573 15.1038C179.727 12.7324 177.232 11.0417 174.089 10.0317C171.403 9.1685 168.773 9.00517 166.2 9.54171C163.663 10.06 161.409 11.2177 159.438 13.0149Z" fill="white"/>
<path d="M213.728 32.9433L215.908 28.6864L196.62 18.8081L194.44 23.0651L201.447 26.6536L190.16 48.6916L195.434 51.3927L206.721 29.3547L213.728 32.9433Z" fill="white"/>
<path d="M128.034 82.194C128.045 81.9051 128.051 81.6148 128.051 81.3231C128.051 69.1484 118.181 59.2789 106.007 59.2789C93.8318 59.2789 83.9623 69.1484 83.9623 81.3231C83.9623 81.6148 83.968 81.9051 83.9792 82.194C74.8001 84.858 68.0905 93.3291 68.0905 103.367C68.0905 113.36 74.7389 121.799 83.8536 124.504L101.771 186.57C102.997 190.818 109.016 190.818 110.242 186.57L128.159 124.504C137.274 121.799 143.923 113.36 143.923 103.367C143.923 93.3291 137.213 84.858 128.034 82.194Z" fill="white"/>
<path d="M206.606 199.043L220.153 225.296L214.887 228.014L206.076 210.937L207.854 231.643L203.867 233.7L187.984 220.273L196.796 237.349L191.53 240.066L177.983 213.812L183.963 210.726L202.386 225.939L200.664 202.109L206.606 199.043Z" fill="white"/>
<path d="M21.0238 202.26L5.81967 227.59L0.739136 224.541L15.9433 199.211L21.0238 202.26Z" fill="white"/>
<path d="M22.7548 211.65C20.6349 213.204 18.9801 215.307 17.7903 217.958C16.6005 220.61 16.1299 223.244 16.3785 225.86C16.6528 228.489 17.554 230.857 19.0822 232.965C20.6476 235.059 22.7175 236.684 25.2919 237.839C28.3297 239.202 31.3092 239.627 34.2305 239.113C37.189 238.585 39.7368 237.145 41.8738 234.795L35.6567 232.006C34.4612 233.015 33.147 233.601 31.7139 233.762C30.3182 233.909 28.8866 233.653 27.4192 232.995C25.8488 232.29 24.6075 231.3 23.6952 230.025C22.8202 228.735 22.3355 227.265 22.2411 225.615C22.184 223.95 22.554 222.23 23.351 220.453C24.1596 218.651 25.1989 217.231 26.4689 216.193C27.7646 215.166 29.1792 214.563 30.7126 214.386C32.2833 214.193 33.8538 214.45 35.4242 215.154C36.8916 215.813 38.0344 216.712 38.8526 217.852C39.6966 219.004 40.1387 220.362 40.179 221.927L46.3961 224.716C46.7195 221.583 46.095 218.736 44.5226 216.175C42.9502 213.614 40.658 211.658 37.646 210.306C35.0716 209.151 32.4761 208.698 29.8595 208.946C27.2802 209.181 24.912 210.082 22.7548 211.65Z" fill="white"/>
<path d="M55.9332 230.492L57.9529 223.366L68.744 226.425L70.0597 221.783L53.5677 217.108L45.5002 245.572L61.9922 250.246L63.3079 245.604L52.5169 242.546L54.6521 235.012L64.2215 237.725L65.5026 233.205L55.9332 230.492Z" fill="white"/>
<path d="M73.5506 229.932C71.966 232.03 70.9845 234.519 70.606 237.4C70.2275 240.282 70.5329 242.94 71.5222 245.375C72.5395 247.814 74.0826 249.824 76.1517 251.405C78.2524 252.961 80.7016 253.924 83.4992 254.291C86.8004 254.725 89.7764 254.276 92.4272 252.945C95.1096 251.59 97.1369 249.48 98.5093 246.615L91.753 245.727C90.8978 247.038 89.807 247.976 88.4805 248.542C87.1857 249.083 85.7409 249.249 84.1463 249.04C82.4397 248.816 80.9664 248.224 79.7265 247.264C78.5181 246.28 77.6318 245.011 77.0675 243.457C76.5349 241.879 76.3954 240.124 76.6489 238.194C76.9062 236.236 77.494 234.577 78.4125 233.218C79.3589 231.862 80.541 230.879 81.9588 230.268C83.4082 229.634 84.9862 229.428 86.6928 229.652C88.2874 229.862 89.6403 230.395 90.7514 231.253C91.8905 232.114 92.7039 233.288 93.1916 234.775L99.9479 235.662C99.3582 232.568 97.9427 230.02 95.7012 228.018C93.4598 226.016 90.7024 224.8 87.4292 224.37C84.6316 224.003 82.0152 224.314 79.5801 225.303C77.1766 226.268 75.1668 227.811 73.5506 229.932Z" fill="white"/>
<path fill-rule="evenodd" clip-rule="evenodd" d="M113.524 244.267L120.335 255.609L127.19 255.432L119.816 243.64C122.029 242.99 123.68 241.875 124.769 240.295C125.856 238.686 126.375 236.909 126.325 234.963C126.282 233.27 125.834 231.758 124.981 230.425C124.155 229.063 122.929 228.008 121.301 227.259C119.672 226.482 117.715 226.123 115.43 226.182L104.345 226.467L105.104 256L111.027 255.848L110.731 244.339L113.524 244.267ZM115.568 239.769L110.617 239.897L110.394 231.223L115.345 231.096C116.952 231.054 118.161 231.404 118.97 232.146C119.779 232.859 120.201 233.892 120.236 235.246C120.271 236.628 119.904 237.724 119.135 238.535C118.364 239.316 117.175 239.728 115.568 239.769Z" fill="white"/>
<path d="M138.027 236.462L136.858 229.148L147.934 227.378L147.173 222.614L130.246 225.318L134.913 254.533L151.84 251.828L151.079 247.064L140.003 248.833L138.768 241.101L148.59 239.532L147.849 234.893L138.027 236.462Z" fill="white"/>
<path fill-rule="evenodd" clip-rule="evenodd" d="M164.431 242.943L175.677 239.481L179.194 244.288L185.18 242.445L166.322 217.295L159.728 219.325L158.28 250.727L164.227 248.896L164.431 242.943ZM165.022 224.87L172.745 235.423L164.573 237.939L165.022 224.87Z" fill="white"/>
</svg>
