<svg width="308" height="522" viewBox="0 0 308 522" fill="none" xmlns="http://www.w3.org/2000/svg">
<path d="M305.069 178.005C305.069 138.152 278.878 104.423 242.774 93.0799C242.783 92.5553 242.787 92.0295 242.787 91.5027C242.787 42.3479 202.939 2.5 153.785 2.5C104.63 2.5 64.7819 42.3479 64.7819 91.5027C64.7819 92.0295 64.7865 92.5553 64.7956 93.0799C28.6916 104.423 2.5 138.152 2.5 178.005C2.5 217.871 28.7081 251.609 64.8294 262.941L134.761 505.191C140.268 524.27 167.301 524.27 172.808 505.191L242.74 262.942C278.861 251.609 305.069 217.871 305.069 178.005Z" fill="#120028" stroke="white" stroke-width="5"/>
</svg>
