<svg width="162" height="175" viewBox="0 0 162 175" fill="none" xmlns="http://www.w3.org/2000/svg">
<path d="M92.885 175C75.385 175 59.567 171.635 45.4327 164.904C31.5224 157.949 20.4167 147.965 12.1154 134.952C4.0385 121.715 0 105.897 0 87.5C0 69.103 4.4872 53.397 13.4615 40.385C22.4359 27.147 34.2147 17.163 48.7981 10.433C63.606 3.478 79.535 0 96.587 0C109.824 0 121.827 2.131 132.596 6.394C143.365 10.433 152.228 15.817 159.183 22.548L136.298 53.173C129.792 48.686 123.51 45.433 117.452 43.413C111.619 41.17 105.561 40.048 99.279 40.048C89.856 40.048 81.442 41.955 74.038 45.769C66.635 49.583 60.913 55.08 56.875 62.26C52.837 69.439 50.8173 77.853 50.8173 87.5C50.8173 97.147 52.724 105.561 56.538 112.74C60.577 119.92 66.074 125.417 73.029 129.231C80.208 133.045 88.397 134.952 97.596 134.952C106.346 134.952 114.311 133.381 121.49 130.24C128.894 127.099 135.625 123.397 141.683 119.135L161.538 150.433C151.667 158.734 140.561 164.904 128.221 168.942C116.106 172.981 104.327 175 92.885 175Z" fill="black"/>
</svg>
