<svg width="262" height="256" viewBox="0 0 262 256" fill="none" xmlns="http://www.w3.org/2000/svg">
<path fill-rule="evenodd" clip-rule="evenodd" d="M143.694 0.0623219C176.495 -1.59775 199.3 30.2472 220.997 54.9036C240.815 77.4255 256.986 102.356 259.977 132.207C263.328 165.65 261.233 202.237 238.213 226.726C214.735 251.703 177.966 255.232 143.694 255.912C108.506 256.61 71.9341 253.613 45.3462 230.554C17.1099 206.066 -5.18649 169.058 1.05566 132.207C6.89392 97.7402 48.1938 86.1088 73.8379 62.3513C97.6293 40.3101 111.303 1.7016 143.694 0.0623219Z" fill="#DADADA"/>
<path d="M152.668 150.535C158.795 150.535 163.762 145.568 163.762 139.441C163.762 133.314 158.795 128.347 152.668 128.347C146.541 128.347 141.574 133.314 141.574 139.441C141.574 145.568 146.541 150.535 152.668 150.535Z" fill="#120028"/>
<path d="M108.291 150.535C114.418 150.535 119.385 145.568 119.385 139.441C119.385 133.314 114.418 128.347 108.291 128.347C102.164 128.347 97.1971 133.314 97.1971 139.441C97.1971 145.568 102.164 150.535 108.291 150.535Z" fill="#120028"/>
<path d="M227.576 158.612C227.931 156.748 228.108 154.795 228.108 152.754C228.108 150.713 227.931 148.76 227.576 146.896C226.462 140.345 223.535 134.237 219.127 129.265C214.719 124.292 209.006 120.653 202.636 118.761C197.961 108.932 191.35 100.148 183.199 92.9341C169.176 80.4198 150.715 72.8758 130.48 72.8758C110.244 72.8758 91.7831 80.4198 77.76 92.9341C69.5947 100.123 62.9382 108.91 58.323 118.761C51.9459 120.64 46.2258 124.275 41.8158 129.25C37.4059 134.225 34.4838 140.34 33.3833 146.896C33.0283 148.76 32.8508 150.713 32.8508 152.754C32.8508 154.795 33.0283 156.748 33.3833 158.612C34.4976 165.163 37.4245 171.271 41.8325 176.243C46.2404 181.216 51.953 184.854 58.323 186.746C62.9377 196.514 69.4903 205.24 77.5825 212.396C91.6056 224.999 110.155 232.632 130.48 232.632C150.804 232.632 169.354 224.999 183.465 212.396C191.453 205.296 198.11 196.509 202.725 186.746C209.084 184.85 214.783 181.208 219.176 176.234C223.568 171.261 226.479 165.156 227.576 158.612ZM192.607 170.505C191.72 170.505 190.921 170.327 190.033 170.238C188.258 176.185 185.684 181.688 182.4 186.746C171.306 203.698 152.224 214.881 130.48 214.881C108.735 214.881 89.653 203.698 78.5588 186.746C75.2749 181.688 72.7011 176.185 70.926 170.238C70.0385 170.327 69.2397 170.505 68.3522 170.505C58.5893 170.505 50.6015 162.517 50.6015 152.754C50.6015 142.991 58.5893 135.003 68.3522 135.003C69.2397 135.003 70.0385 135.181 70.926 135.269C72.7011 129.323 75.2749 123.82 78.5588 118.761C89.653 101.809 108.735 90.6265 130.48 90.6265C152.224 90.6265 171.306 101.809 182.4 118.761C185.684 123.82 188.258 129.323 190.033 135.269C190.921 135.181 191.72 135.003 192.607 135.003C202.37 135.003 210.358 142.991 210.358 152.754C210.358 162.517 202.37 170.505 192.607 170.505ZM90.5405 170.505C97.2858 186.214 112.64 197.131 130.48 197.131C148.319 197.131 163.673 186.214 170.419 170.505H90.5405Z" fill="#120028"/>
</svg>
