<svg width="232" height="256" viewBox="0 0 232 256" fill="none" xmlns="http://www.w3.org/2000/svg">
<path fill-rule="evenodd" clip-rule="evenodd" d="M112.129 0.408675C152.343 6.1076 149.949 67.2221 173.93 100.003C191.03 123.378 225.44 133.235 230.199 161.804C235.442 193.28 224.522 229.654 198.635 248.31C174.313 265.838 142.085 248.084 112.129 246.894C84.4058 245.794 54.3315 258.475 32.2308 241.702C8.45086 223.654 0.436028 191.654 0.0104312 161.804C-0.42174 131.493 12.6245 104.491 29.9195 79.5947C52.4857 47.1104 72.9667 -5.14113 112.129 0.408675Z" fill="#DADADA"/>
<path d="M134.454 107.475V100.84C134.454 97.1916 131.468 94.2062 127.82 94.2062H48.2088C44.56 94.2062 41.5746 97.1916 41.5746 100.84V127.377C41.5746 131.026 44.56 134.012 48.2088 134.012H127.82C131.468 134.012 134.454 131.026 134.454 127.377V120.743H141.088V147.28H74.7457V220.257C74.7457 223.906 77.7311 226.891 81.38 226.891H94.6484C98.2973 226.891 101.283 223.906 101.283 220.257V160.549H154.357V107.475H134.454Z" fill="#120028"/>
</svg>
