<svg width="319" height="256" viewBox="0 0 319 256" fill="none" xmlns="http://www.w3.org/2000/svg">
<path fill-rule="evenodd" clip-rule="evenodd" d="M147.668 0.695521C180.411 -0.0419107 213.486 -3.18992 241.204 14.2562C276.662 36.5743 323.223 66.2447 317.818 107.792C312.377 149.62 251.548 152.17 219.67 179.794C192.36 203.46 183.387 249.747 147.668 255.238C110.049 261.021 76.433 232.854 49.5074 205.953C22.5675 179.037 -1.68202 145.832 0.0916077 107.792C1.8131 70.8695 28.3378 40.0861 58.2531 18.3766C83.8156 -0.17409 116.092 1.40668 147.668 0.695521Z" fill="#DADADA"/>
<path d="M151.912 207.88C141.104 207.88 130.401 205.751 120.415 201.615C110.43 197.479 101.356 191.416 93.7135 183.773C78.2783 168.338 69.6069 147.403 69.6069 125.575C69.6069 103.746 78.2783 82.8111 93.7135 67.3758C109.149 51.9406 130.083 43.2691 151.912 43.2691C197.18 43.2691 234.218 76.1913 234.218 117.344C234.218 130.441 229.015 143.002 219.754 152.263C210.492 161.524 197.932 166.727 184.834 166.727H170.019C167.55 166.727 165.904 168.373 165.904 170.843C165.904 171.666 166.727 172.489 166.727 173.312C170.019 177.427 171.666 182.365 171.666 187.304C172.489 198.826 163.435 207.88 151.912 207.88ZM151.912 59.7302C134.449 59.7302 117.701 66.6674 105.353 79.0156C93.0051 91.3638 86.0679 108.112 86.0679 125.575C86.0679 143.038 93.0051 159.785 105.353 172.134C117.701 184.482 134.449 191.419 151.912 191.419C154.381 191.419 156.028 189.773 156.028 187.304C156.028 185.657 155.204 184.834 155.204 184.011C151.912 179.896 150.266 175.781 150.266 170.843C150.266 159.32 159.32 150.266 170.842 150.266H184.834C193.566 150.266 201.94 146.798 208.114 140.623C214.288 134.449 217.757 126.075 217.757 117.344C217.757 85.2449 188.127 59.7302 151.912 59.7302ZM106.644 109.113C113.229 109.113 118.99 114.875 118.99 121.459C118.99 128.044 113.229 133.805 106.644 133.805C100.06 133.805 94.2985 128.044 94.2985 121.459C94.2985 114.875 100.06 109.113 106.644 109.113ZM131.336 76.1913C137.92 76.1913 143.682 81.9527 143.682 88.5371C143.682 95.1215 137.92 100.883 131.336 100.883C124.751 100.883 118.99 95.1215 118.99 88.5371C118.99 81.9527 124.751 76.1913 131.336 76.1913ZM172.489 76.1913C179.073 76.1913 184.834 81.9527 184.834 88.5371C184.834 95.1215 179.073 100.883 172.489 100.883C165.904 100.883 160.143 95.1215 160.143 88.5371C160.143 81.9527 165.904 76.1913 172.489 76.1913ZM197.18 109.113C203.765 109.113 209.526 114.875 209.526 121.459C209.526 128.044 203.765 133.805 197.18 133.805C190.596 133.805 184.834 128.044 184.834 121.459C184.834 114.875 190.596 109.113 197.18 109.113Z" fill="#120028"/>
</svg>
