<svg width="286" height="256" viewBox="0 0 286 256" fill="none" xmlns="http://www.w3.org/2000/svg">
<path fill-rule="evenodd" clip-rule="evenodd" d="M140.31 0.983628C176.47 7.97572 178.891 59.2172 204.458 85.726C229.024 111.196 276.872 115.195 283.914 149.874C291.33 186.394 268.056 225.892 237.151 246.715C209.321 265.466 173.622 250.69 140.31 246.631C113.257 243.335 86.9164 241.186 64.5035 225.681C36.2206 206.115 4.2702 184.052 0.446954 149.874C-3.59847 113.71 20.4925 81.4939 45.4074 54.971C71.3116 27.3949 103.164 -6.19928 140.31 0.983628Z" fill="#DADADA"/>
<path d="M90.3419 212.357C83.1434 212.357 76.9958 209.778 71.8992 204.619C66.7978 199.46 64.1272 193.221 63.8872 185.903C63.8872 184.823 63.9472 183.743 64.0672 182.663C64.1872 181.584 64.3671 180.504 64.6071 179.424L79.724 118.956C81.4037 112.477 84.823 107.23 89.982 103.213C95.141 99.1914 101.02 97.1806 107.618 97.1806H177.804C184.403 97.1806 190.282 99.1914 195.441 103.213C200.6 107.23 204.019 112.477 205.699 118.956L220.816 179.424C221.056 180.504 221.267 181.612 221.449 182.75C221.627 183.892 221.716 185.003 221.716 186.083C221.716 193.401 219.107 199.611 213.891 204.713C208.669 209.809 202.399 212.357 195.081 212.357C190.042 212.357 185.363 211.038 181.044 208.398C176.725 205.759 173.485 202.16 171.326 197.6L166.287 187.163C165.687 185.963 164.787 185.063 163.587 184.463C162.387 183.863 161.128 183.563 159.808 183.563H125.615C124.295 183.563 123.035 183.863 121.836 184.463C120.636 185.063 119.736 185.963 119.136 187.163L114.097 197.6C111.938 202.16 108.698 205.759 104.379 208.398C100.06 211.038 95.3809 212.357 90.3419 212.357ZM153.509 147.57C155.549 147.57 157.26 146.879 158.642 145.497C160.019 144.12 160.708 142.411 160.708 140.372C160.708 138.332 160.019 136.621 158.642 135.239C157.26 133.862 155.549 133.173 153.509 133.173C151.47 133.173 149.761 133.862 148.384 135.239C147.002 136.621 146.311 138.332 146.311 140.372C146.311 142.411 147.002 144.12 148.384 145.497C149.761 146.879 151.47 147.57 153.509 147.57ZM167.906 133.173C169.946 133.173 171.654 132.482 173.032 131.1C174.414 129.723 175.105 128.014 175.105 125.975C175.105 123.935 174.414 122.224 173.032 120.842C171.654 119.465 169.946 118.776 167.906 118.776C165.867 118.776 164.158 119.465 162.781 120.842C161.399 122.224 160.708 123.935 160.708 125.975C160.708 128.014 161.399 129.723 162.781 131.1C164.158 132.482 165.867 133.173 167.906 133.173ZM167.906 161.968C169.946 161.968 171.654 161.277 173.032 159.894C174.414 158.517 175.105 156.809 175.105 154.769C175.105 152.729 174.414 151.019 173.032 149.636C171.654 148.259 169.946 147.57 167.906 147.57C165.867 147.57 164.158 148.259 162.781 149.636C161.399 151.019 160.708 152.729 160.708 154.769C160.708 156.809 161.399 158.517 162.781 159.894C164.158 161.277 165.867 161.968 167.906 161.968ZM182.304 147.57C184.343 147.57 186.052 146.879 187.429 145.497C188.811 144.12 189.502 142.411 189.502 140.372C189.502 138.332 188.811 136.621 187.429 135.239C186.052 133.862 184.343 133.173 182.304 133.173C180.264 133.173 178.555 133.862 177.178 135.239C175.796 136.621 175.105 138.332 175.105 140.372C175.105 142.411 175.796 144.12 177.178 145.497C178.555 146.879 180.264 147.57 182.304 147.57ZM117.516 158.368C119.076 158.368 120.367 157.857 121.389 156.835C122.407 155.818 122.915 154.529 122.915 152.969V145.771H130.114C131.674 145.771 132.965 145.26 133.987 144.238C135.004 143.22 135.513 141.932 135.513 140.372C135.513 138.812 135.004 137.521 133.987 136.499C132.965 135.482 131.674 134.973 130.114 134.973H122.915V127.774C122.915 126.215 122.407 124.926 121.389 123.909C120.367 122.887 119.076 122.376 117.516 122.376C115.957 122.376 114.668 122.887 113.651 123.909C112.629 124.926 112.118 126.215 112.118 127.774V134.973H104.919C103.359 134.973 102.071 135.482 101.053 136.499C100.031 137.521 99.5201 138.812 99.5201 140.372C99.5201 141.932 100.031 143.22 101.053 144.238C102.071 145.26 103.359 145.771 104.919 145.771H112.118V152.969C112.118 154.529 112.629 155.818 113.651 156.835C114.668 157.857 115.957 158.368 117.516 158.368Z" fill="#120028"/>
</svg>
