<svg width="258" height="256" viewBox="0 0 258 256" fill="none" xmlns="http://www.w3.org/2000/svg">
<path fill-rule="evenodd" clip-rule="evenodd" d="M131.772 15.6218C159.474 19.0431 188.563 14.0191 210.882 30.7801C236.298 49.8663 256.945 78.1079 257.302 109.89C257.663 141.906 233.583 166.546 212.683 190.801C189.239 218.009 167.317 260.717 131.772 255.575C95.9362 250.391 95.2156 197.548 71.3131 170.349C50.5725 146.748 11.4476 140.35 3.74239 109.89C-5.16707 74.6696 1.11258 30.0263 30.3678 8.48571C58.7338 -12.4002 96.812 11.304 131.772 15.6218Z" fill="#DADADA"/>
<path d="M190.758 156.745C188.822 150.787 183.236 146.393 176.608 146.393H169.161V124.051C169.161 122.076 168.376 120.182 166.98 118.785C165.583 117.389 163.689 116.604 161.714 116.604H117.03V101.709H131.924C133.899 101.709 135.794 100.925 137.19 99.5281C138.587 98.1314 139.372 96.2372 139.372 94.262V79.3673H154.266C158.217 79.3673 162.005 77.7981 164.798 75.0048C167.592 72.2115 169.161 68.423 169.161 64.4727V61.4193C178.071 65.0116 185.979 70.7096 192.206 78.0256C198.433 85.3416 202.795 94.0576 204.918 103.428C207.041 112.797 206.862 122.542 204.396 131.828C201.93 141.113 197.25 149.663 190.758 156.745ZM139.372 175.661C109.955 172.012 87.2402 146.989 87.2402 116.604C87.2402 111.987 87.836 107.518 88.8042 103.273L124.477 138.946V146.393C124.477 150.344 126.046 154.132 128.839 156.925C131.633 159.719 135.421 161.288 139.372 161.288M146.819 42.1306C137.039 42.1306 127.355 44.057 118.319 47.7996C109.284 51.5422 101.074 57.0279 94.1583 63.9434C80.1918 77.9099 72.3456 96.8525 72.3456 116.604C72.3456 136.356 80.1918 155.298 94.1583 169.265C101.074 176.18 109.284 181.666 118.319 185.408C127.355 189.151 137.039 191.077 146.819 191.077C166.57 191.077 185.513 183.231 199.48 169.265C213.446 155.298 221.292 136.356 221.292 116.604C221.292 106.824 219.366 97.1398 215.623 88.1043C211.881 79.0688 206.395 70.8589 199.48 63.9434C192.564 57.0279 184.354 51.5422 175.319 47.7996C166.283 44.057 156.599 42.1306 146.819 42.1306Z" fill="#120028"/>
</svg>
