<svg width="294" height="256" viewBox="0 0 294 256" fill="none" xmlns="http://www.w3.org/2000/svg">
<path fill-rule="evenodd" clip-rule="evenodd" d="M161.877 1.89341C197.647 3.50446 236.496 2.31078 261.998 27.4452C287.615 52.6939 287.283 91.6589 289.386 127.566C291.686 166.851 303.221 213.291 274.453 240.142C245.888 266.803 200.375 253.262 161.877 246.578C131.602 241.322 107.306 225.116 82.6073 206.836C50.9348 183.394 7.32083 166.473 1.07895 127.566C-5.56029 86.1829 19.2888 43.8106 52.3119 18.0012C82.5477 -5.62981 123.541 0.166791 161.877 1.89341Z" fill="#DADADA"/>
<path d="M150.036 33.6883C159.541 33.6883 168.658 37.4643 175.379 44.1857C182.1 50.9072 185.877 60.0234 185.877 69.5289C185.877 79.0344 182.1 88.1506 175.379 94.872C168.658 101.593 159.541 105.369 150.036 105.369C140.53 105.369 131.414 101.593 124.693 94.872C117.971 88.1506 114.195 79.0344 114.195 69.5289C114.195 60.0234 117.971 50.9072 124.693 44.1857C131.414 37.4643 140.53 33.6883 150.036 33.6883ZM150.036 123.29C189.64 123.29 221.717 139.328 221.717 159.13V177.051H78.3548V159.13C78.3548 139.328 110.432 123.29 150.036 123.29Z" fill="#120028"/>
</svg>
