<svg width="214" height="256" viewBox="0 0 214 256" fill="none" xmlns="http://www.w3.org/2000/svg">
<path fill-rule="evenodd" clip-rule="evenodd" d="M95.9013 0.302772C127.834 -3.71354 147.875 33.135 169.456 57.0114C189.393 79.0698 216.593 100.98 213.64 130.566C210.774 159.28 175.978 169.846 156.104 190.769C135.178 212.801 125.744 248.805 95.9013 254.523C63.4078 260.75 25.3331 246.956 7.15421 219.313C-9.79929 193.534 7.84486 160.72 14.3831 130.566C18.944 109.532 27.3644 91.6921 38.7821 73.447C55.8419 46.1861 63.9939 4.31594 95.9013 0.302772Z" fill="#120028"/>
<path d="M106.732 65.2949C113.638 65.2949 119.289 70.9454 119.289 77.8516C119.289 84.7578 113.638 90.4083 106.732 90.4083C99.8258 90.4083 94.1753 84.7578 94.1753 77.8516C94.1753 70.9454 99.8258 65.2949 106.732 65.2949ZM163.237 109.243H125.567V190.862H113.01V153.192H100.454V190.862H87.8969V109.243H50.2268V96.6866H163.237V109.243Z" fill="#DADADA"/>
</svg>
