<svg width="273" height="256" viewBox="0 0 273 256" fill="none" xmlns="http://www.w3.org/2000/svg">
<path fill-rule="evenodd" clip-rule="evenodd" d="M148.117 0.850719C182.332 -3.89759 218.587 11.5923 240.503 38.293C261.051 63.3283 251.404 98.4566 254.678 130.679C258.655 169.804 288.985 215.933 261.406 243.969C233.85 271.982 187.227 242.811 148.117 239.008C115.549 235.842 81.2789 243.259 54.9062 223.889C24.7807 201.763 -4.67464 167.68 0.621299 130.679C5.74899 94.8538 51.0821 84.7221 78.2478 60.8103C102.196 39.7306 116.515 5.23627 148.117 0.850719Z" fill="#120028"/>
<path d="M157.183 104.096C171.415 104.096 176.691 110.892 177.171 120.886H194.84C194.28 107.134 185.886 94.5019 169.176 90.4244V72.9151H145.191V90.1845C140.953 91.1439 136.956 92.583 133.358 94.5019L145.111 106.255C148.389 104.895 152.386 104.096 157.183 104.096ZM99.8586 81.3899L89.7048 91.5437L117.208 119.047C117.208 135.677 129.68 144.711 148.469 150.308L176.531 178.37C173.813 182.208 168.137 185.646 157.183 185.646C140.713 185.646 134.237 178.29 133.358 168.856H115.769C116.728 186.365 129.84 196.199 145.191 199.477V216.827H169.176V199.637C176.851 198.198 183.727 195.24 188.764 190.683L206.513 208.432L216.667 198.278L99.8586 81.3899Z" fill="#DADADA"/>
</svg>
